<?xml version="1.0" encoding="UTF-8"?>
<svg version="1.1" xmlns="http://www.w3.org/2000/svg" width="1024" height="1024">
<path d="M0 0 C3.18937111 1.24135468 5.99988134 2.67693621 8.95947266 4.39111328 C10.05904297 5.02404297 11.15861328 5.65697266 12.29150391 6.30908203 C13.48033115 7.00044502 14.66913251 7.69185251 15.85791016 8.38330078 C17.10627579 9.1039288 18.35498014 9.82397032 19.60400391 10.54345703 C22.19679192 12.03761025 24.78810898 13.53426834 27.37841797 15.03271484 C33.31638325 18.46492056 39.27571804 21.85960849 45.23291016 25.25830078 C47.5664697 26.59123836 49.89968924 27.92477057 52.23291016 29.25830078 C53.39957056 29.9249784 54.56623723 30.59164507 55.73291016 31.25830078 C174.73291013 99.25830077 174.73291013 99.25830077 176.48287964 100.25828552 C177.64964553 100.92500743 178.81641392 101.59172496 179.98318481 102.25843811 C182.89835394 103.92422362 185.81347963 105.59008505 188.72851562 107.25610352 C193.99632622 110.26669484 199.26445022 113.27673068 204.53419495 116.28393555 C207.47564629 117.96251769 210.4168177 119.64158993 213.35791016 121.32080078 C214.22749863 121.81722076 214.22749863 121.81722076 215.11465454 122.32366943 C223.56593869 127.14931604 231.99731244 132.00863546 240.42041016 136.88330078 C249.89213247 142.36361411 259.41978948 147.73494832 268.97973633 153.05957031 C277.11990209 157.60556837 285.17399974 162.28800359 293.21386719 167.00854492 C300.3384866 171.18097076 307.5186637 175.24309386 314.73291016 179.25830078 C323.34281637 184.05340002 331.90503925 188.92208101 340.42041016 193.88330078 C341.41814453 194.46337891 342.41587891 195.04345703 343.44384766 195.64111328 C344.37841797 196.18767578 345.31298828 196.73423828 346.27587891 197.29736328 C347.09080811 197.77383301 347.9057373 198.25030273 348.74536133 198.74121094 C349.56625244 199.24185059 350.38714355 199.74249023 351.23291016 200.25830078 C352.25847017 200.8077206 353.28403019 201.35714041 354.34066778 201.92320931 C357.23291016 204.25830078 357.23291016 204.25830078 357.98845714 207.37712276 C357.99235764 209.23818981 357.99235764 209.23818981 357.99633694 211.13685417 C358.00595637 211.83190518 358.01557581 212.52695619 358.02548674 213.24306935 C358.05049496 215.58417004 358.03258406 217.9229892 358.01499939 220.26412964 C358.02405692 221.95448934 358.03572185 223.64483675 358.04977709 225.33516228 C358.08073616 229.98939728 358.07404238 234.64294212 358.06123531 239.29723477 C358.05385483 244.31308122 358.08084941 249.32875839 358.10334778 254.34454346 C358.1416552 264.17465958 358.14696166 274.00453013 358.13994699 283.83470832 C358.13460426 291.82276725 358.13983172 299.81075144 358.15262032 307.79880142 C358.15440588 308.93442523 358.15619145 310.07004904 358.15803112 311.2400857 C358.16166627 313.54689519 358.16530867 315.85370467 358.16895825 318.16051413 C358.20161063 339.80883868 358.19508519 361.45702315 358.17680372 383.10535564 C358.16129484 402.92112816 358.19506103 422.73645832 358.25209837 442.55214332 C358.3101791 462.88578403 358.33501116 483.21921529 358.32372862 503.55293953 C358.31798399 514.97405875 358.32553763 526.39480141 358.36787224 537.81585312 C358.40354786 547.53908872 358.4079039 557.26171608 358.37150174 566.98495971 C358.35378738 571.94802938 358.35066394 576.90998539 358.38650894 581.87298203 C358.41893123 586.41479025 358.40997059 590.95454839 358.36772389 595.49625851 C358.35973912 597.14091735 358.3670214 598.78573418 358.39093148 600.43023859 C358.55743767 612.73435978 358.55743767 612.73435978 355.26409543 616.52352929 C352.96737448 618.08522055 350.79498519 619.20297025 348.23291016 620.25830078 C346.6888147 621.16708984 346.6888147 621.16708984 345.11352539 622.09423828 C344.1822583 622.60212891 343.25099121 623.11001953 342.29150391 623.63330078 C341.22593262 624.21861572 340.16036133 624.80393066 339.0625 625.40698242 C337.94311035 626.01791748 336.8237207 626.62885254 335.67041016 627.25830078 C333.25304039 628.58671251 330.83812894 629.91953113 328.42431641 631.25439453 C327.51462097 631.75742348 327.51462097 631.75742348 326.58654785 632.27061462 C320.70797145 635.53155056 314.90219862 638.91256613 309.10791016 642.32080078 C299.92773051 647.71634299 290.67473779 652.96537587 281.37475586 658.15136719 C265.95334818 666.75267087 250.66380655 675.5813484 235.37329102 684.41259766 C223.85833466 691.05943554 212.3128014 697.65242962 200.76513672 704.2421875 C195.50243095 707.24563254 190.2417383 710.25260043 184.980896 713.25930786 C182.06498344 714.9257836 179.14894018 716.5920306 176.23291016 718.25830078 C175.06624286 718.92496635 173.8995762 719.59163302 172.73291016 720.25830078 C53.73291016 788.25830078 53.73291016 788.25830078 51.98327637 789.2580719 C50.81536647 789.92546208 49.64747913 790.59289175 48.47961426 791.26036072 C45.58215118 792.91628094 42.6842285 794.57138351 39.78564453 796.2253418 C34.30612969 799.35301236 28.83060093 802.48700653 23.36743164 805.64315796 C20.78070812 807.13703628 18.191952 808.627372 15.60302734 810.11743164 C14.36697751 810.83017735 13.13193099 811.54466615 11.89794922 812.26098633 C10.18922029 813.25275133 8.47676918 814.23809494 6.76416016 815.22314453 C5.79027344 815.78638428 4.81638672 816.34962402 3.81298828 816.92993164 C-0.24358801 819.01848497 -0.24358801 819.01848497 -2.76708984 819.25830078 C-4.85986328 818.49243164 -4.85986328 818.49243164 -7.12646484 817.22314453 C-8.41000854 816.51472412 -8.41000854 816.51472412 -9.71948242 815.79199219 C-11.1042981 815.00187744 -11.1042981 815.00187744 -12.51708984 814.19580078 C-13.48864014 813.65358887 -14.46019043 813.11137695 -15.46118164 812.55273438 C-23.56222832 808.00743869 -31.58252918 803.32067451 -39.59033203 798.61352539 C-46.76505722 794.40099601 -53.99650491 790.30285709 -61.26708984 786.25830078 C-70.49650277 781.12216868 -79.6394638 775.85617295 -88.74755859 770.50830078 C-95.87237174 766.33586119 -103.05255126 762.27334834 -110.26708984 758.25830078 C-119.49640387 753.12198689 -128.63945957 747.85617544 -137.74755859 742.50830078 C-144.87237174 738.33586119 -152.05255126 734.27334834 -159.26708984 730.25830078 C-168.49640387 725.12198689 -177.63945957 719.85617544 -186.74755859 714.50830078 C-193.8723751 710.33585922 -201.05262821 706.27349056 -208.26708984 702.25830078 C-217.42432299 697.15999154 -226.50402154 691.94522023 -235.54541016 686.64453125 C-243.17507794 682.17551343 -250.8368647 677.76468447 -258.51708984 673.38330078 C-259.39356674 672.88325531 -259.39356674 672.88325531 -260.28775024 672.37310791 C-263.25900965 670.67826588 -266.23072256 668.98422094 -269.20263672 667.29052734 C-274.4780228 664.28359334 -279.74943422 661.26970461 -285.02111816 658.25628662 C-287.93627642 656.59000148 -290.85169647 654.92417451 -293.76708984 653.25830078 C-294.93375776 652.59163631 -296.10042443 651.92496964 -297.26708984 651.25830078 C-297.84458984 650.92830078 -298.42208984 650.59830078 -299.01708984 650.25830078 C-304.26708985 647.25830078 -304.26708985 647.25830078 -306.01672363 646.25849915 C-307.18459849 645.59114936 -308.35248588 644.92382151 -309.52038574 644.2565155 C-312.41867005 642.60047921 -315.31669385 640.94399113 -318.21435547 639.28686523 C-323.68342594 636.15975203 -329.15444234 633.0362458 -334.63256836 629.92501831 C-337.2214844 628.45439546 -339.80927144 626.98179235 -342.39697266 625.5090332 C-343.63143508 624.80719458 -344.86645062 624.10632781 -346.10205078 623.40649414 C-347.81470925 622.43637869 -349.52531937 621.46264977 -351.23583984 620.48876953 C-352.20972656 619.93600342 -353.18361328 619.3832373 -354.18701172 618.8137207 C-355.0384375 618.30043213 -355.88986328 617.78714355 -356.76708984 617.25830078 C-357.469634 616.87055255 -358.17217816 616.48280431 -358.89601153 616.08330613 C-360.76708984 614.25830078 -360.76708984 614.25830078 -361.27423984 611.2636773 C-361.27759961 610.02258621 -361.28095938 608.78149513 -361.28442097 607.50279522 C-361.29173271 606.80889805 -361.29904446 606.11500089 -361.30657777 605.40007654 C-361.32630643 603.05732075 -361.31735813 600.71553704 -361.30867004 598.37272644 C-361.31685369 596.68323629 -361.32676734 594.99375378 -361.33826941 593.30428296 C-361.36476994 588.64792806 -361.36607602 583.99184955 -361.36328375 579.33543241 C-361.36452113 574.31891258 -361.38860725 569.3024949 -361.40959167 564.286026 C-361.44672717 554.45248345 -361.46138665 544.61903004 -361.46706621 534.78542348 C-361.4716944 526.79449368 -361.48226572 518.8035947 -361.49704552 510.81267738 C-361.53804082 488.17239647 -361.56109599 465.53219069 -361.56292061 442.89187273 C-361.56302351 441.67047709 -361.56312641 440.44908145 -361.56323242 439.19067383 C-361.56333121 437.96779214 -361.56343 436.74491045 -361.56353178 435.48497174 C-361.5662616 415.66268451 -361.61242943 395.84076342 -361.67800704 376.01859375 C-361.74475788 355.6804839 -361.77799457 335.34255451 -361.77656764 315.00433236 C-361.77648822 303.57982184 -361.79056233 292.15572349 -361.8409214 280.73131371 C-361.88356649 271.00442203 -361.89533764 261.27810872 -361.86665503 251.55115505 C-361.85291917 246.58604754 -361.85383874 241.62206851 -361.89377213 236.65707779 C-361.92995622 232.11341221 -361.92477118 227.57176003 -361.88632902 223.02813033 C-361.87973516 221.38275529 -361.88842322 219.73723502 -361.91375361 218.09204175 C-362.09094867 205.78238544 -362.09094867 205.78238544 -358.79909742 201.99266112 C-356.50208143 200.43074802 -354.32967275 199.31334568 -351.76708984 198.25830078 C-350.22299438 197.34951172 -350.22299438 197.34951172 -348.64770508 196.42236328 C-347.71643799 195.91447266 -346.7851709 195.40658203 -345.82568359 194.88330078 C-344.7601123 194.29798584 -343.69454102 193.7126709 -342.59667969 193.10961914 C-341.47729004 192.49868408 -340.35790039 191.88774902 -339.20458984 191.25830078 C-336.78722008 189.92988905 -334.37230863 188.59707043 -331.95849609 187.26220703 C-331.04880066 186.75917809 -331.04880066 186.75917809 -330.12072754 186.24598694 C-324.24215318 182.98505213 -318.43632736 179.60411903 -312.64208984 176.19580078 C-304.57046264 171.45037525 -296.44887091 166.81120414 -288.26708984 162.25830078 C-279.1098232 157.16005341 -270.03015667 151.94521936 -260.98876953 146.64453125 C-253.35910174 142.17551343 -245.69731498 137.76468447 -238.01708984 133.38330078 C-237.14061295 132.88325531 -237.14061295 132.88325531 -236.24642944 132.37310791 C-233.27517004 130.67826588 -230.30345713 128.98422094 -227.33154297 127.29052734 C-222.05615689 124.28359334 -216.78474547 121.26970461 -211.51306152 118.25628662 C-208.59790326 116.59000148 -205.68248322 114.92417451 -202.76708984 113.25830078 C-201.60042193 112.59163631 -200.43375526 111.92496964 -199.26708984 111.25830078 C-80.26708985 43.25830078 -80.26708985 43.25830078 -78.51716614 42.25834656 C-77.35024265 41.59153168 -76.18332168 40.92471243 -75.0164032 40.25788879 C-72.10368633 38.59345377 -69.19092629 36.92909439 -66.27807617 35.26489258 C-60.9810188 32.23841948 -55.68430828 29.21134643 -50.38916016 26.18153381 C-38.48674759 19.37116455 -26.57888663 12.57080323 -14.64208984 5.82080078 C-13.18355591 4.9957605 -13.18355591 4.9957605 -11.69555664 4.15405273 C-10.80908447 3.65349365 -9.9226123 3.15293457 -9.00927734 2.63720703 C-8.23438965 2.19965088 -7.45950195 1.76209473 -6.66113281 1.3112793 C-2.90287443 -0.77809533 -2.90287443 -0.77809533 0 0 Z " fill="#0047B2" transform="translate(513.76708984375,102.74169921875)"/>
<path d="M0 0 C3.35927769 1.11975923 3.80914756 1.73602602 5.79296875 4.515625 C6.33244141 5.26134766 6.87191406 6.00707031 7.42773438 6.77539062 C8.00845703 7.59201172 8.58917969 8.40863281 9.1875 9.25 C10.45018186 10.99597965 11.71456805 12.74072772 12.98046875 14.484375 C13.63966309 15.39380859 14.29885742 16.30324219 14.97802734 17.24023438 C18.25311892 21.71036661 21.62666785 26.10381291 25 30.5 C30.65451428 37.88565409 36.21471736 45.33196571 41.7109375 52.8359375 C46.07277032 58.77671433 50.52054548 64.6475326 55 70.5 C60.65353395 77.88641792 66.21470194 85.33194466 71.7109375 92.8359375 C76.07277032 98.77671433 80.52054548 104.6475326 85 110.5 C90.65353395 117.88641792 96.21470194 125.33194466 101.7109375 132.8359375 C106.07277032 138.77671433 110.52054548 144.6475326 115 150.5 C120.64466275 157.87482758 126.20407614 165.30380935 131.68237305 172.80297852 C134.86709364 177.14918008 138.10133911 181.45007765 141.39453125 185.71484375 C142.12994141 186.66875 142.86535156 187.62265625 143.62304688 188.60546875 C145.05487629 190.45752285 146.49216606 192.30537166 147.93554688 194.1484375 C148.58201172 194.98503906 149.22847656 195.82164062 149.89453125 196.68359375 C150.47050049 197.42150146 151.04646973 198.15940918 151.63989258 198.91967773 C153.04244012 201.06491334 153.79781454 202.44511096 154 205 C153.08227539 206.86499023 153.08227539 206.86499023 151.59765625 208.80859375 C151.04529297 209.54464844 150.49292969 210.28070312 149.92382812 211.0390625 C149.30958984 211.83054687 148.69535156 212.62203125 148.0625 213.4375 C147.11600586 214.68853516 147.11600586 214.68853516 146.15039062 215.96484375 C144.11245189 218.65276294 142.05707995 221.32671075 140 224 C138.66434041 225.7505211 137.32969558 227.50181697 135.99609375 229.25390625 C133.98815484 231.89109276 131.97908042 234.52734479 129.96508789 237.15991211 C125.58098476 242.89540645 121.26571727 248.67602985 117 254.5 C111.4133758 262.12740017 105.70723662 269.65644565 99.9609375 277.1640625 C95.57935674 282.89902727 91.26457042 288.67759563 87 294.5 C81.4133758 302.12740017 75.70723662 309.65644565 69.9609375 317.1640625 C65.57935674 322.89902727 61.26457042 328.67759563 57 334.5 C51.4133758 342.12740017 45.70723662 349.65644565 39.9609375 357.1640625 C35.00208652 363.6546049 30.14062926 370.21053767 25.31542969 376.80078125 C20.01921382 384.01600378 14.59760676 391.13314984 9.15234375 398.23632812 C8.50910156 399.07615234 7.86585938 399.91597656 7.203125 400.78125 C6.63239258 401.52439453 6.06166016 402.26753906 5.47363281 403.03320312 C4.2622123 404.65003607 3.12067129 406.31899306 2 408 C-1.42095276 406.85968241 -1.94218846 406.09723592 -4.01171875 403.265625 C-4.59638916 402.47470459 -5.18105957 401.68378418 -5.78344727 400.86889648 C-6.41178467 400.00466064 -7.04012207 399.1404248 -7.6875 398.25 C-9.04337298 396.41209771 -10.40017369 394.57487953 -11.7578125 392.73828125 C-12.4580957 391.78775879 -13.15837891 390.83723633 -13.87988281 389.85791016 C-17.22589384 385.34749963 -20.64570452 380.89437086 -24.0625 376.4375 C-29.69430061 369.07153138 -35.23221723 361.6439454 -40.71118164 354.16381836 C-45.07284082 348.22305473 -49.52061501 342.35237656 -54 336.5 C-59.65353395 329.11358208 -65.21470194 321.66805534 -70.7109375 314.1640625 C-75.07277032 308.22328567 -79.52054548 302.3524674 -84 296.5 C-89.65353395 289.11358208 -95.21470194 281.66805534 -100.7109375 274.1640625 C-105.07277032 268.22328567 -109.52054548 262.3524674 -114 256.5 C-119.64439313 249.12552468 -125.21260479 241.70305334 -130.67797852 234.19482422 C-133.86203186 229.83760238 -137.11814426 225.55426985 -140.46484375 221.3203125 C-141.58149414 219.8962207 -141.58149414 219.8962207 -142.72070312 218.44335938 C-144.17161515 216.59871968 -145.63475231 214.76361462 -147.11132812 212.93945312 C-148.09069336 211.68938477 -148.09069336 211.68938477 -149.08984375 210.4140625 C-149.96950806 209.31505615 -149.96950806 209.31505615 -150.86694336 208.19384766 C-152 206 -152 206 -151.87597656 203.5 C-150.9030696 200.72336475 -149.71135785 198.89706089 -147.89453125 196.5859375 C-147.24806641 195.75255859 -146.60160156 194.91917969 -145.93554688 194.06054688 C-145.23494141 193.17431641 -144.53433594 192.28808594 -143.8125 191.375 C-142.33850126 189.47760466 -140.86587021 187.57914612 -139.39453125 185.6796875 C-138.28198975 184.24834473 -138.28198975 184.24834473 -137.14697266 182.78808594 C-134.03042546 178.7408982 -131.0111547 174.62586311 -128 170.5 C-122.41481401 162.87157013 -116.70721085 155.34352069 -110.9609375 147.8359375 C-106.57935674 142.10097273 -102.26457042 136.32240437 -98 130.5 C-92.4133758 122.87259983 -86.70723662 115.34355435 -80.9609375 107.8359375 C-76.57935674 102.10097273 -72.26457042 96.32240437 -68 90.5 C-62.4133758 82.87259983 -56.70723662 75.34355435 -50.9609375 67.8359375 C-46.57935674 62.10097273 -42.26457042 56.32240437 -38 50.5 C-32.4242042 42.88738382 -26.73028586 35.37202481 -20.99389648 27.87988281 C-15.66379965 20.90509644 -10.43526515 13.85980954 -5.25195312 6.77539062 C-4.70603516 6.02966797 -4.16011719 5.28394531 -3.59765625 4.515625 C-3.11820557 3.85852539 -2.63875488 3.20142578 -2.14477539 2.52441406 C-1 1 -1 1 0 0 Z " fill="#FEFEFE" transform="translate(511,308)"/>
</svg>
